<svg width="32" height="48" viewBox="0 0 32 48" fill="none" xmlns="http://www.w3.org/2000/svg">
    <path
        d="M0.315789 25.7337C0.274737 25.7337 0.233684 25.7274 0.195789 25.7085C0.0757895 25.6611 0 25.5442 0 25.4179V3.14845C0 3.02214 0.0757895 2.9053 0.195789 2.85793C0.312632 2.81056 0.448421 2.83582 0.54 2.9274L11.6716 14.059C11.7947 14.1821 11.7947 14.3811 11.6716 14.5042L0.54 25.639C0.48 25.699 0.397895 25.7306 0.315789 25.7306V25.7337ZM0.631579 3.91266V24.6537L11.0021 14.2832L0.631579 3.91266Z"
        fill="black" />
    <path d="M14.1817 17.0179L8.61438 22.5822L0.31543 25.4179L11.4502 14.2832L14.1817 17.0179Z"
        fill="#E6E6FA" />
    <path
        d="M0.315569 25.7337C0.2082 25.7337 0.107148 25.68 0.0471478 25.5853C-0.0317995 25.459 -0.0128522 25.2979 0.0913583 25.1937L11.2261 14.059C11.3493 13.9358 11.5482 13.9358 11.6714 14.059L14.4061 16.7937C14.5293 16.9169 14.5293 17.1158 14.4061 17.239L8.83873 22.8064C8.80399 22.8411 8.76294 22.8664 8.71873 22.8821L0.416622 25.7148C0.381885 25.7274 0.347148 25.7306 0.315569 25.7306V25.7337ZM11.4503 14.7285L1.49978 24.679L8.44399 22.3074L13.7366 17.0148L11.4503 14.7285Z"
        fill="black" />
    <path
        d="M30.8837 22.5821L22.5816 25.4179L17.9237 20.7568L14.1816 17.0179L19.749 11.4505L30.8837 22.5821Z"
        fill="#E6E6FA" />
    <path
        d="M22.5818 25.7337C22.4997 25.7337 22.4176 25.7021 22.3576 25.6421L13.9576 17.2421C13.8344 17.1189 13.8344 16.92 13.9576 16.7968L19.525 11.2295C19.645 11.1095 19.8534 11.1095 19.9702 11.2295L31.105 22.3642C31.1808 22.44 31.2155 22.5537 31.1902 22.6579C31.165 22.7653 31.0892 22.8505 30.985 22.8853L22.686 25.7179C22.6513 25.7305 22.6197 25.7337 22.585 25.7337H22.5818ZM14.6271 17.0179L22.6639 25.0547L30.2997 22.4495L19.7492 11.8958L14.6302 17.0147L14.6271 17.0179Z"
        fill="black" />
    <path d="M30.8839 22.5821L19.7492 33.7168L17.0176 30.9821L22.5818 25.4179L30.8839 22.5821Z"
        fill="#E6E6FA" />
    <path
        d="M19.7493 34.0326C19.6672 34.0326 19.5882 34.0011 19.525 33.9411L16.7903 31.2063C16.7303 31.1463 16.6987 31.0674 16.6987 30.9821C16.6987 30.8969 16.7335 30.8179 16.7903 30.7579L22.3577 25.1905C22.3924 25.1558 22.4335 25.1305 22.4777 25.1147L30.7766 22.2821C30.9156 22.2347 31.0703 22.2884 31.1461 22.4147C31.225 22.5411 31.2061 22.7021 31.1019 22.8063L19.9672 33.9411C19.904 34.0042 19.825 34.0326 19.7429 34.0326H19.7493ZM17.4629 30.9821L19.7493 33.2684L29.6966 23.3211L22.7524 25.6926L17.4598 30.9853L17.4629 30.9821Z"
        fill="black" />
    <path d="M19.7491 11.4506L14.1818 17.0179L11.4502 14.2832L19.7491 11.4506Z" fill="#E6E6FA" />
    <path
        d="M14.1818 17.3337C14.0997 17.3337 14.0207 17.3021 13.9576 17.2421L11.2228 14.5074C11.147 14.4316 11.1123 14.3179 11.1376 14.2137C11.1628 14.1063 11.2386 14.0211 11.3428 13.9863L19.6418 11.1537C19.7807 11.1063 19.9355 11.16 20.0112 11.2863C20.0902 11.4126 20.0712 11.5737 19.967 11.6779L14.3997 17.2453C14.3365 17.3084 14.2576 17.3369 14.1755 17.3369L14.1818 17.3337ZM12.0312 14.419L14.1818 16.5695L18.5649 12.1863L12.0312 14.4158V14.419Z"
        fill="black" />
    <path d="M19.7491 33.7169L11.4502 36.5495L17.0176 30.9821L19.7491 33.7169Z" fill="#E6E6FA" />
    <path
        d="M11.4503 36.8653C11.343 36.8653 11.2419 36.8116 11.1819 36.7168C11.103 36.5905 11.1219 36.4295 11.2261 36.3253L16.7935 30.7579C16.9167 30.6347 17.1156 30.6347 17.2388 30.7579L19.9735 33.4926C20.0493 33.5684 20.084 33.6821 20.0588 33.7863C20.0335 33.8905 19.9577 33.9789 19.8535 34.0137L11.5545 36.8463C11.5198 36.8589 11.4851 36.8621 11.4535 36.8621L11.4503 36.8653ZM17.0177 31.4305L12.6345 35.8137L19.1682 33.5842L17.0177 31.4337V31.4305Z"
        fill="black" />
    <path
        d="M22.5821 25.4179L17.0179 30.9822L8.61475 22.5822L14.1821 17.0179L17.9242 20.7569L22.5821 25.4179Z"
        fill="#E6E6FA" />
    <path
        d="M17.0178 31.2979C16.9357 31.2979 16.8568 31.2664 16.7936 31.2064L8.39364 22.8064C8.27048 22.6832 8.27048 22.4842 8.39364 22.3611L13.961 16.7937C14.0842 16.6706 14.2831 16.6706 14.4063 16.7937L22.8063 25.1937C22.9294 25.3169 22.9294 25.5158 22.8063 25.639L17.2389 31.2064C17.1757 31.2695 17.0968 31.2979 17.0147 31.2979H17.0178ZM9.06311 22.5821L17.0178 30.5369L22.1368 25.4179L14.1821 17.4632L9.06311 22.5821Z"
        fill="black" />
    <path d="M17.018 30.9821L11.4507 36.5495L0.315918 25.4179L8.61487 22.5821L17.018 30.9821Z"
        fill="#E6E6FA" />
    <path
        d="M11.4504 36.8653C11.3683 36.8653 11.2894 36.8337 11.2262 36.7737L0.0914741 25.639C0.0156846 25.5632 -0.0190522 25.4495 0.00621096 25.3453C0.0314741 25.2379 0.107264 25.1526 0.211474 25.1179L8.51042 22.2853C8.62411 22.2474 8.75042 22.2758 8.83568 22.3611L17.2357 30.7611C17.3588 30.8842 17.3588 31.0832 17.2357 31.2063L11.6683 36.7737C11.6052 36.8368 11.5262 36.8653 11.4441 36.8653H11.4504ZM0.896737 25.5505L11.4473 36.1042L16.5662 30.9853L8.52937 22.9484L0.896737 25.5505Z"
        fill="black" />
    <path
        d="M0.315569 48C0.2082 48 0.107148 47.9463 0.0471478 47.8516C-0.0317995 47.7252 -0.0128522 47.5642 0.0913583 47.46L11.2261 36.3252C11.2608 36.2905 11.3019 36.2652 11.3461 36.2495L19.645 33.4168C19.784 33.3695 19.9387 33.4231 20.0145 33.5494C20.0935 33.6758 20.0745 33.8368 19.9703 33.941L8.83557 45.0758C8.80083 45.1105 8.75978 45.1358 8.71557 45.1516L0.416622 47.9842C0.381885 47.9968 0.347148 48 0.315569 48ZM11.6208 36.8242L1.49978 46.9452L8.44399 44.5737L18.565 34.4526L11.6208 36.8242Z"
        fill="black" />
    <path
        d="M0.315789 48C0.274737 48 0.233684 47.9937 0.195789 47.9748C0.0789474 47.9274 0 47.8106 0 47.6842V25.4179C0 25.2916 0.0757895 25.1748 0.195789 25.1274C0.312632 25.0769 0.448421 25.1053 0.54 25.1969L11.6747 36.3316C11.7979 36.4548 11.7979 36.6537 11.6747 36.7769L0.54 47.9085C0.48 47.9685 0.397895 48 0.315789 48ZM0.631579 26.179V46.9232L11.0021 36.5527L0.631579 26.179Z"
        fill="black" />
    <path
        d="M11.4504 14.599C11.3683 14.599 11.2862 14.5674 11.2262 14.5074L0.0914741 3.37264C0.0156846 3.29685 -0.0190522 3.18317 0.00621096 3.07895C0.0314741 2.97159 0.107264 2.88632 0.211474 2.85159L8.51358 0.0157972C8.62726 -0.0220975 8.75358 0.00632354 8.83884 0.0915867L19.9736 11.2263C20.0494 11.3021 20.0841 11.4158 20.0588 11.52C20.0336 11.6274 19.9578 11.7126 19.8536 11.7474L11.5546 14.58C11.5199 14.5926 11.4883 14.5958 11.4536 14.5958L11.4504 14.599ZM0.896737 3.28422L11.5325 13.92L19.1683 11.3147L8.53253 0.678955L0.896737 3.28422Z"
        fill="black" />
</svg>